<svg width="32" height="32" viewBox="0 0 32 32" fill="none" xmlns="http://www.w3.org/2000/svg">
<path d="M20.708 19.0347H19.624C19.3267 19.0347 19.0547 19.2027 18.9227 19.468L17.9213 21.4707C17.7773 21.76 17.364 21.76 17.22 21.4707L14.7707 16.5707C14.628 16.2867 14.2253 16.28 14.0747 16.56L12.96 18.6227C12.8227 18.876 12.5573 19.0347 12.2693 19.0347H11.292" stroke="white" stroke-width="2" stroke-linecap="round" stroke-linejoin="round"/>
<path d="M6.55862 16H5.33462C3.62529 16 2.35729 17.5867 2.73329 19.2533L3.63595 23.2533C3.91062 24.4693 4.99062 25.3333 6.23729 25.3333H7.83195C8.25995 25.3333 8.57595 24.9373 8.48262 24.52L6.75995 16.892C5.42262 10.968 9.92662 5.33333 16 5.33333V5.33333V5.33333C22.0733 5.33333 26.5773 10.968 25.24 16.892L23.5186 24.52C23.424 24.9373 23.7413 25.3333 24.168 25.3333H25.7626C27.0093 25.3333 28.0893 24.4693 28.364 23.2533L29.2666 19.2533C29.6426 17.5867 28.3746 16 26.6653 16H25.4413" stroke="#04D361" stroke-width="2" stroke-linecap="round" stroke-linejoin="round"/>
</svg>
